<mxfile host="app.diagrams.net" modified="2023-05-09T10:45:15.261Z" agent="Mozilla/5.0 (Windows NT 10.0; Win64; x64) AppleWebKit/537.36 (KHTML, like Gecko) Chrome/112.0.0.0 Safari/537.36" etag="ew1YsZLwc67KSGzLzUhr" version="21.2.9" type="device">
  <diagram name="Page-1" id="c93hOQ8DvyCHXwdb_RiX">
    <mxGraphModel dx="1313" dy="796" grid="1" gridSize="10" guides="1" tooltips="1" connect="1" arrows="1" fold="1" page="1" pageScale="1" pageWidth="827" pageHeight="1169" math="0" shadow="0">
      <root>
        <mxCell id="0" />
        <mxCell id="1" parent="0" />
        <mxCell id="sAPqX24pcC3J2kppDREi-6" style="edgeStyle=orthogonalEdgeStyle;rounded=0;orthogonalLoop=1;jettySize=auto;html=1;entryX=0;entryY=0.5;entryDx=0;entryDy=0;" parent="1" source="sAPqX24pcC3J2kppDREi-2" target="sAPqX24pcC3J2kppDREi-3" edge="1">
          <mxGeometry relative="1" as="geometry" />
        </mxCell>
        <mxCell id="sAPqX24pcC3J2kppDREi-2" value="Start&lt;br&gt;(Login function)" style="rounded=1;whiteSpace=wrap;html=1;fillColor=#fff2cc;strokeColor=#d6b656;" parent="1" vertex="1">
          <mxGeometry x="60" y="130" width="120" height="40" as="geometry" />
        </mxCell>
        <mxCell id="sAPqX24pcC3J2kppDREi-7" style="edgeStyle=orthogonalEdgeStyle;rounded=0;orthogonalLoop=1;jettySize=auto;html=1;" parent="1" source="sAPqX24pcC3J2kppDREi-3" target="sAPqX24pcC3J2kppDREi-5" edge="1">
          <mxGeometry relative="1" as="geometry" />
        </mxCell>
        <mxCell id="sAPqX24pcC3J2kppDREi-3" value="Ask user age." style="shape=parallelogram;perimeter=parallelogramPerimeter;whiteSpace=wrap;html=1;fixedSize=1;fillColor=#dae8fc;strokeColor=#6c8ebf;" parent="1" vertex="1">
          <mxGeometry x="230" y="120.14" width="120" height="60" as="geometry" />
        </mxCell>
        <mxCell id="sAPqX24pcC3J2kppDREi-12" style="edgeStyle=orthogonalEdgeStyle;rounded=0;orthogonalLoop=1;jettySize=auto;html=1;exitX=0.5;exitY=1;exitDx=0;exitDy=0;" parent="1" source="sAPqX24pcC3J2kppDREi-5" edge="1">
          <mxGeometry relative="1" as="geometry">
            <mxPoint x="280" y="180.14" as="targetPoint" />
            <Array as="points">
              <mxPoint x="455" y="215.14" />
              <mxPoint x="280" y="215.14" />
              <mxPoint x="280" y="180.14" />
            </Array>
          </mxGeometry>
        </mxCell>
        <mxCell id="sAPqX24pcC3J2kppDREi-13" value="False" style="edgeLabel;html=1;align=center;verticalAlign=middle;resizable=0;points=[];" parent="sAPqX24pcC3J2kppDREi-12" vertex="1" connectable="0">
          <mxGeometry x="-0.0923" y="-1" relative="1" as="geometry">
            <mxPoint as="offset" />
          </mxGeometry>
        </mxCell>
        <mxCell id="sAPqX24pcC3J2kppDREi-15" value="True" style="edgeStyle=orthogonalEdgeStyle;rounded=0;orthogonalLoop=1;jettySize=auto;html=1;entryX=0;entryY=0.5;entryDx=0;entryDy=0;" parent="1" source="sAPqX24pcC3J2kppDREi-5" target="sAPqX24pcC3J2kppDREi-14" edge="1">
          <mxGeometry relative="1" as="geometry" />
        </mxCell>
        <mxCell id="sAPqX24pcC3J2kppDREi-5" value="If &amp;gt;=14 and &amp;lt;=18" style="rhombus;whiteSpace=wrap;html=1;fillColor=#f8cecc;strokeColor=#b85450;" parent="1" vertex="1">
          <mxGeometry x="400" y="105.14" width="110" height="90" as="geometry" />
        </mxCell>
        <mxCell id="sAPqX24pcC3J2kppDREi-24" style="edgeStyle=orthogonalEdgeStyle;rounded=0;orthogonalLoop=1;jettySize=auto;html=1;" parent="1" source="sAPqX24pcC3J2kppDREi-14" target="sAPqX24pcC3J2kppDREi-16" edge="1">
          <mxGeometry relative="1" as="geometry" />
        </mxCell>
        <mxCell id="sAPqX24pcC3J2kppDREi-14" value="User input: 1. add&amp;nbsp;&lt;br&gt;&amp;nbsp;account, 2. Login" style="shape=parallelogram;perimeter=parallelogramPerimeter;whiteSpace=wrap;html=1;fixedSize=1;fillColor=#dae8fc;strokeColor=#6c8ebf;" parent="1" vertex="1">
          <mxGeometry x="550" y="120.14" width="140" height="60" as="geometry" />
        </mxCell>
        <mxCell id="sAPqX24pcC3J2kppDREi-22" value="TRUE" style="edgeStyle=orthogonalEdgeStyle;rounded=0;orthogonalLoop=1;jettySize=auto;html=1;" parent="1" source="sAPqX24pcC3J2kppDREi-16" target="sAPqX24pcC3J2kppDREi-19" edge="1">
          <mxGeometry relative="1" as="geometry" />
        </mxCell>
        <mxCell id="sAPqX24pcC3J2kppDREi-31" value="False" style="edgeStyle=orthogonalEdgeStyle;rounded=0;orthogonalLoop=1;jettySize=auto;html=1;entryX=0;entryY=0.5;entryDx=0;entryDy=0;" parent="1" source="sAPqX24pcC3J2kppDREi-16" target="sAPqX24pcC3J2kppDREi-18" edge="1">
          <mxGeometry relative="1" as="geometry" />
        </mxCell>
        <mxCell id="sAPqX24pcC3J2kppDREi-16" value="if userinput=1" style="rhombus;whiteSpace=wrap;html=1;fillColor=#f8cecc;strokeColor=#b85450;" parent="1" vertex="1">
          <mxGeometry x="732" y="105.14" width="110" height="90" as="geometry" />
        </mxCell>
        <mxCell id="sAPqX24pcC3J2kppDREi-27" value="" style="edgeStyle=orthogonalEdgeStyle;rounded=0;orthogonalLoop=1;jettySize=auto;html=1;" parent="1" source="sAPqX24pcC3J2kppDREi-17" target="sAPqX24pcC3J2kppDREi-26" edge="1">
          <mxGeometry x="0.5944" y="23" relative="1" as="geometry">
            <mxPoint as="offset" />
          </mxGeometry>
        </mxCell>
        <mxCell id="sAPqX24pcC3J2kppDREi-17" value="User input: Ask for password" style="shape=parallelogram;perimeter=parallelogramPerimeter;whiteSpace=wrap;html=1;fixedSize=1;fillColor=#dae8fc;strokeColor=#6c8ebf;" parent="1" vertex="1">
          <mxGeometry x="717" y="340.14" width="140" height="60" as="geometry" />
        </mxCell>
        <mxCell id="sAPqX24pcC3J2kppDREi-32" style="edgeStyle=orthogonalEdgeStyle;rounded=0;orthogonalLoop=1;jettySize=auto;html=1;entryX=0.5;entryY=0;entryDx=0;entryDy=0;" parent="1" source="sAPqX24pcC3J2kppDREi-18" target="sAPqX24pcC3J2kppDREi-21" edge="1">
          <mxGeometry relative="1" as="geometry" />
        </mxCell>
        <mxCell id="sAPqX24pcC3J2kppDREi-48" value="True" style="edgeLabel;html=1;align=center;verticalAlign=middle;resizable=0;points=[];" parent="sAPqX24pcC3J2kppDREi-32" vertex="1" connectable="0">
          <mxGeometry x="-0.2878" y="-2" relative="1" as="geometry">
            <mxPoint as="offset" />
          </mxGeometry>
        </mxCell>
        <mxCell id="_w8bl6HFfjUdUU0fpf9U-6" style="edgeStyle=orthogonalEdgeStyle;rounded=0;orthogonalLoop=1;jettySize=auto;html=1;entryX=0.621;entryY=0.009;entryDx=0;entryDy=0;entryPerimeter=0;" edge="1" parent="1" source="sAPqX24pcC3J2kppDREi-18" target="sAPqX24pcC3J2kppDREi-14">
          <mxGeometry relative="1" as="geometry">
            <mxPoint x="1030" y="150.14" as="targetPoint" />
            <Array as="points">
              <mxPoint x="950" y="100" />
              <mxPoint x="637" y="100" />
            </Array>
          </mxGeometry>
        </mxCell>
        <mxCell id="_w8bl6HFfjUdUU0fpf9U-8" value="False" style="edgeLabel;html=1;align=center;verticalAlign=middle;resizable=0;points=[];" vertex="1" connectable="0" parent="_w8bl6HFfjUdUU0fpf9U-6">
          <mxGeometry x="-0.1759" y="3" relative="1" as="geometry">
            <mxPoint as="offset" />
          </mxGeometry>
        </mxCell>
        <mxCell id="sAPqX24pcC3J2kppDREi-18" value="if userinput=2" style="rhombus;whiteSpace=wrap;html=1;fillColor=#f8cecc;strokeColor=#b85450;" parent="1" vertex="1">
          <mxGeometry x="895" y="105.14" width="110" height="90" as="geometry" />
        </mxCell>
        <mxCell id="sAPqX24pcC3J2kppDREi-23" style="edgeStyle=orthogonalEdgeStyle;rounded=0;orthogonalLoop=1;jettySize=auto;html=1;entryX=0.5;entryY=0;entryDx=0;entryDy=0;" parent="1" source="sAPqX24pcC3J2kppDREi-19" target="sAPqX24pcC3J2kppDREi-17" edge="1">
          <mxGeometry relative="1" as="geometry" />
        </mxCell>
        <mxCell id="sAPqX24pcC3J2kppDREi-19" value="User input: Ask for account name" style="shape=parallelogram;perimeter=parallelogramPerimeter;whiteSpace=wrap;html=1;fixedSize=1;fillColor=#dae8fc;strokeColor=#6c8ebf;" parent="1" vertex="1">
          <mxGeometry x="717" y="240.14" width="140" height="60" as="geometry" />
        </mxCell>
        <mxCell id="sAPqX24pcC3J2kppDREi-40" style="edgeStyle=orthogonalEdgeStyle;rounded=0;orthogonalLoop=1;jettySize=auto;html=1;entryX=0.522;entryY=0;entryDx=0;entryDy=0;entryPerimeter=0;" parent="1" source="sAPqX24pcC3J2kppDREi-20" edge="1">
          <mxGeometry relative="1" as="geometry">
            <mxPoint x="950.03" y="430.14" as="targetPoint" />
          </mxGeometry>
        </mxCell>
        <mxCell id="sAPqX24pcC3J2kppDREi-20" value="User input: Ask for password" style="shape=parallelogram;perimeter=parallelogramPerimeter;whiteSpace=wrap;html=1;fixedSize=1;fillColor=#dae8fc;strokeColor=#6c8ebf;" parent="1" vertex="1">
          <mxGeometry x="880" y="330.14" width="140" height="60" as="geometry" />
        </mxCell>
        <mxCell id="_w8bl6HFfjUdUU0fpf9U-1" style="edgeStyle=orthogonalEdgeStyle;rounded=0;orthogonalLoop=1;jettySize=auto;html=1;entryX=0.5;entryY=0;entryDx=0;entryDy=0;" edge="1" parent="1" source="sAPqX24pcC3J2kppDREi-21" target="sAPqX24pcC3J2kppDREi-20">
          <mxGeometry relative="1" as="geometry" />
        </mxCell>
        <mxCell id="sAPqX24pcC3J2kppDREi-21" value="User input: Ask for password" style="shape=parallelogram;perimeter=parallelogramPerimeter;whiteSpace=wrap;html=1;fixedSize=1;fillColor=#dae8fc;strokeColor=#6c8ebf;" parent="1" vertex="1">
          <mxGeometry x="880" y="240.14" width="140" height="60" as="geometry" />
        </mxCell>
        <mxCell id="4Q9XA_miV3cwY5ju5Qzq-4" style="edgeStyle=orthogonalEdgeStyle;rounded=0;orthogonalLoop=1;jettySize=auto;html=1;entryX=0.5;entryY=0;entryDx=0;entryDy=0;" parent="1" source="sAPqX24pcC3J2kppDREi-26" target="4Q9XA_miV3cwY5ju5Qzq-3" edge="1">
          <mxGeometry relative="1" as="geometry" />
        </mxCell>
        <mxCell id="sAPqX24pcC3J2kppDREi-26" value="Add username and passoword to dictionary" style="rounded=0;whiteSpace=wrap;html=1;fillColor=#d5e8d4;strokeColor=#82b366;" parent="1" vertex="1">
          <mxGeometry x="727" y="430.14" width="120" height="60" as="geometry" />
        </mxCell>
        <mxCell id="L-jvm7y-m4SU_3kIY5i--5" value="True" style="edgeStyle=orthogonalEdgeStyle;rounded=0;orthogonalLoop=1;jettySize=auto;html=1;" parent="1" source="sAPqX24pcC3J2kppDREi-42" target="L-jvm7y-m4SU_3kIY5i--1" edge="1">
          <mxGeometry relative="1" as="geometry" />
        </mxCell>
        <mxCell id="_w8bl6HFfjUdUU0fpf9U-3" style="edgeStyle=orthogonalEdgeStyle;rounded=0;orthogonalLoop=1;jettySize=auto;html=1;entryX=0.5;entryY=0;entryDx=0;entryDy=0;" edge="1" parent="1" source="sAPqX24pcC3J2kppDREi-42" target="sAPqX24pcC3J2kppDREi-14">
          <mxGeometry relative="1" as="geometry">
            <Array as="points">
              <mxPoint x="1040" y="490" />
              <mxPoint x="1040" y="70" />
              <mxPoint x="620" y="70" />
            </Array>
          </mxGeometry>
        </mxCell>
        <mxCell id="_w8bl6HFfjUdUU0fpf9U-4" value="False" style="edgeLabel;html=1;align=center;verticalAlign=middle;resizable=0;points=[];" vertex="1" connectable="0" parent="_w8bl6HFfjUdUU0fpf9U-3">
          <mxGeometry x="0.4337" y="-3" relative="1" as="geometry">
            <mxPoint as="offset" />
          </mxGeometry>
        </mxCell>
        <mxCell id="sAPqX24pcC3J2kppDREi-42" value="If username and password in username dictionary" style="rhombus;whiteSpace=wrap;html=1;fillColor=#f8cecc;strokeColor=#b85450;" parent="1" vertex="1">
          <mxGeometry x="880" y="430.14" width="137.5" height="119.86" as="geometry" />
        </mxCell>
        <mxCell id="sAPqX24pcC3J2kppDREi-60" style="edgeStyle=orthogonalEdgeStyle;rounded=0;orthogonalLoop=1;jettySize=auto;html=1;entryX=0.026;entryY=0.497;entryDx=0;entryDy=0;entryPerimeter=0;" parent="1" target="sAPqX24pcC3J2kppDREi-55" edge="1">
          <mxGeometry relative="1" as="geometry">
            <mxPoint x="1273.0033333333333" y="142.24" as="sourcePoint" />
          </mxGeometry>
        </mxCell>
        <mxCell id="sAPqX24pcC3J2kppDREi-47" value="User input choices:&lt;br&gt;Drinks(a)&lt;br&gt;&amp;nbsp;Lunch(b)&lt;br&gt;&amp;nbsp;Snacks(c)&lt;br&gt;&amp;nbsp;Frozen(d)&lt;br&gt;Checkout(e)" style="shape=parallelogram;perimeter=parallelogramPerimeter;whiteSpace=wrap;html=1;fixedSize=1;fillColor=#dae8fc;strokeColor=#6c8ebf;" parent="1" vertex="1">
          <mxGeometry x="1193" y="112.28" width="140" height="107.72" as="geometry" />
        </mxCell>
        <mxCell id="sAPqX24pcC3J2kppDREi-61" style="edgeStyle=orthogonalEdgeStyle;rounded=0;orthogonalLoop=1;jettySize=auto;html=1;entryX=0.03;entryY=0.497;entryDx=0;entryDy=0;entryPerimeter=0;" parent="1" source="sAPqX24pcC3J2kppDREi-55" target="sAPqX24pcC3J2kppDREi-56" edge="1">
          <mxGeometry relative="1" as="geometry">
            <Array as="points">
              <mxPoint x="1492.99" y="142.27999999999997" />
            </Array>
          </mxGeometry>
        </mxCell>
        <mxCell id="sAPqX24pcC3J2kppDREi-87" value="False" style="edgeLabel;html=1;align=center;verticalAlign=middle;resizable=0;points=[];" parent="sAPqX24pcC3J2kppDREi-61" vertex="1" connectable="0">
          <mxGeometry x="-0.05" y="-2" relative="1" as="geometry">
            <mxPoint as="offset" />
          </mxGeometry>
        </mxCell>
        <mxCell id="i_FzINYeL-t58OxELR1C-27" style="edgeStyle=orthogonalEdgeStyle;rounded=0;orthogonalLoop=1;jettySize=auto;html=1;entryX=0.5;entryY=0;entryDx=0;entryDy=0;" parent="1" source="sAPqX24pcC3J2kppDREi-55" target="i_FzINYeL-t58OxELR1C-18" edge="1">
          <mxGeometry relative="1" as="geometry" />
        </mxCell>
        <mxCell id="sAPqX24pcC3J2kppDREi-55" value="If userinput =a&lt;br&gt;(DRINKS)" style="rhombus;whiteSpace=wrap;html=1;fillColor=#f8cecc;strokeColor=#b85450;" parent="1" vertex="1">
          <mxGeometry x="1342.99" y="97.28" width="110" height="90" as="geometry" />
        </mxCell>
        <mxCell id="sAPqX24pcC3J2kppDREi-62" value="False" style="edgeStyle=orthogonalEdgeStyle;rounded=0;orthogonalLoop=1;jettySize=auto;html=1;entryX=0.019;entryY=0.503;entryDx=0;entryDy=0;entryPerimeter=0;" parent="1" source="sAPqX24pcC3J2kppDREi-56" target="sAPqX24pcC3J2kppDREi-57" edge="1">
          <mxGeometry relative="1" as="geometry" />
        </mxCell>
        <mxCell id="i_FzINYeL-t58OxELR1C-28" style="edgeStyle=orthogonalEdgeStyle;rounded=0;orthogonalLoop=1;jettySize=auto;html=1;entryX=0.5;entryY=0;entryDx=0;entryDy=0;" parent="1" source="sAPqX24pcC3J2kppDREi-56" target="i_FzINYeL-t58OxELR1C-20" edge="1">
          <mxGeometry relative="1" as="geometry" />
        </mxCell>
        <mxCell id="sAPqX24pcC3J2kppDREi-56" value="If userinput =b&lt;br&gt;(LUNCH)" style="rhombus;whiteSpace=wrap;html=1;fillColor=#f8cecc;strokeColor=#b85450;" parent="1" vertex="1">
          <mxGeometry x="1492.99" y="97.28" width="110" height="90" as="geometry" />
        </mxCell>
        <mxCell id="sAPqX24pcC3J2kppDREi-63" value="False" style="edgeStyle=orthogonalEdgeStyle;rounded=0;orthogonalLoop=1;jettySize=auto;html=1;entryX=0.018;entryY=0.506;entryDx=0;entryDy=0;entryPerimeter=0;" parent="1" source="sAPqX24pcC3J2kppDREi-57" target="sAPqX24pcC3J2kppDREi-58" edge="1">
          <mxGeometry relative="1" as="geometry" />
        </mxCell>
        <mxCell id="i_FzINYeL-t58OxELR1C-29" style="edgeStyle=orthogonalEdgeStyle;rounded=0;orthogonalLoop=1;jettySize=auto;html=1;entryX=0.5;entryY=0;entryDx=0;entryDy=0;" parent="1" source="sAPqX24pcC3J2kppDREi-57" target="i_FzINYeL-t58OxELR1C-21" edge="1">
          <mxGeometry relative="1" as="geometry" />
        </mxCell>
        <mxCell id="sAPqX24pcC3J2kppDREi-57" value="If userinput =3&lt;br&gt;(SNACKS)" style="rhombus;whiteSpace=wrap;html=1;fillColor=#f8cecc;strokeColor=#b85450;" parent="1" vertex="1">
          <mxGeometry x="1642.99" y="97.28" width="110" height="90" as="geometry" />
        </mxCell>
        <mxCell id="sAPqX24pcC3J2kppDREi-64" value="False" style="edgeStyle=orthogonalEdgeStyle;rounded=0;orthogonalLoop=1;jettySize=auto;html=1;entryX=0.019;entryY=0.495;entryDx=0;entryDy=0;entryPerimeter=0;" parent="1" source="sAPqX24pcC3J2kppDREi-58" target="sAPqX24pcC3J2kppDREi-59" edge="1">
          <mxGeometry relative="1" as="geometry">
            <mxPoint x="1942.99" y="142.27999999999997" as="targetPoint" />
          </mxGeometry>
        </mxCell>
        <mxCell id="i_FzINYeL-t58OxELR1C-30" style="edgeStyle=orthogonalEdgeStyle;rounded=0;orthogonalLoop=1;jettySize=auto;html=1;entryX=0.5;entryY=0;entryDx=0;entryDy=0;" parent="1" source="sAPqX24pcC3J2kppDREi-58" target="i_FzINYeL-t58OxELR1C-22" edge="1">
          <mxGeometry relative="1" as="geometry" />
        </mxCell>
        <mxCell id="sAPqX24pcC3J2kppDREi-58" value="If userinput =4&lt;br&gt;(FROZEN)" style="rhombus;whiteSpace=wrap;html=1;fillColor=#f8cecc;strokeColor=#b85450;" parent="1" vertex="1">
          <mxGeometry x="1792.99" y="97.28" width="110" height="90" as="geometry" />
        </mxCell>
        <mxCell id="sAPqX24pcC3J2kppDREi-86" value="True" style="edgeStyle=orthogonalEdgeStyle;rounded=0;orthogonalLoop=1;jettySize=auto;html=1;" parent="1" source="sAPqX24pcC3J2kppDREi-59" target="sAPqX24pcC3J2kppDREi-83" edge="1">
          <mxGeometry relative="1" as="geometry" />
        </mxCell>
        <mxCell id="i_FzINYeL-t58OxELR1C-35" style="edgeStyle=orthogonalEdgeStyle;rounded=0;orthogonalLoop=1;jettySize=auto;html=1;entryX=0.5;entryY=0;entryDx=0;entryDy=0;" parent="1" source="sAPqX24pcC3J2kppDREi-59" target="sAPqX24pcC3J2kppDREi-47" edge="1">
          <mxGeometry relative="1" as="geometry">
            <Array as="points">
              <mxPoint x="1998" y="92.14" />
              <mxPoint x="1263" y="92.14" />
            </Array>
          </mxGeometry>
        </mxCell>
        <mxCell id="i_FzINYeL-t58OxELR1C-36" value="False" style="edgeLabel;html=1;align=center;verticalAlign=middle;resizable=0;points=[];" parent="i_FzINYeL-t58OxELR1C-35" vertex="1" connectable="0">
          <mxGeometry x="0.071" y="-4" relative="1" as="geometry">
            <mxPoint as="offset" />
          </mxGeometry>
        </mxCell>
        <mxCell id="sAPqX24pcC3J2kppDREi-59" value="If userinput =5&lt;br&gt;(CHECKOUT)" style="rhombus;whiteSpace=wrap;html=1;fillColor=#f8cecc;strokeColor=#b85450;" parent="1" vertex="1">
          <mxGeometry x="1942.99" y="97.28" width="110" height="90" as="geometry" />
        </mxCell>
        <mxCell id="i_FzINYeL-t58OxELR1C-43" style="edgeStyle=orthogonalEdgeStyle;rounded=0;orthogonalLoop=1;jettySize=auto;html=1;" parent="1" source="sAPqX24pcC3J2kppDREi-67" target="sAPqX24pcC3J2kppDREi-81" edge="1">
          <mxGeometry relative="1" as="geometry">
            <Array as="points">
              <mxPoint x="1470" y="470.14" />
              <mxPoint x="1210" y="470.14" />
            </Array>
          </mxGeometry>
        </mxCell>
        <mxCell id="sAPqX24pcC3J2kppDREi-67" value="User input: &lt;br&gt;What would you like to order" style="shape=parallelogram;perimeter=parallelogramPerimeter;whiteSpace=wrap;html=1;fixedSize=1;fillColor=#dae8fc;strokeColor=#6c8ebf;" parent="1" vertex="1">
          <mxGeometry x="1400" y="400.14" width="140" height="60" as="geometry" />
        </mxCell>
        <mxCell id="i_FzINYeL-t58OxELR1C-53" value="False" style="edgeStyle=orthogonalEdgeStyle;rounded=0;orthogonalLoop=1;jettySize=auto;html=1;" parent="1" source="sAPqX24pcC3J2kppDREi-81" target="i_FzINYeL-t58OxELR1C-50" edge="1">
          <mxGeometry relative="1" as="geometry" />
        </mxCell>
        <mxCell id="i_FzINYeL-t58OxELR1C-59" style="edgeStyle=orthogonalEdgeStyle;rounded=0;orthogonalLoop=1;jettySize=auto;html=1;entryX=0.5;entryY=0;entryDx=0;entryDy=0;" parent="1" source="sAPqX24pcC3J2kppDREi-81" target="sAPqX24pcC3J2kppDREi-82" edge="1">
          <mxGeometry relative="1" as="geometry" />
        </mxCell>
        <mxCell id="i_FzINYeL-t58OxELR1C-67" value="True" style="edgeLabel;html=1;align=center;verticalAlign=middle;resizable=0;points=[];" parent="i_FzINYeL-t58OxELR1C-59" vertex="1" connectable="0">
          <mxGeometry x="-0.0729" y="-1" relative="1" as="geometry">
            <mxPoint as="offset" />
          </mxGeometry>
        </mxCell>
        <mxCell id="sAPqX24pcC3J2kppDREi-81" value="&lt;br&gt;If user input is in dictionary&lt;br&gt;(DRINKS)" style="rhombus;whiteSpace=wrap;html=1;fillColor=#f8cecc;strokeColor=#b85450;" parent="1" vertex="1">
          <mxGeometry x="1150" y="480.28" width="120" height="90" as="geometry" />
        </mxCell>
        <mxCell id="_w8bl6HFfjUdUU0fpf9U-24" style="edgeStyle=orthogonalEdgeStyle;rounded=0;orthogonalLoop=1;jettySize=auto;html=1;" edge="1" parent="1" source="sAPqX24pcC3J2kppDREi-82" target="sAPqX24pcC3J2kppDREi-124">
          <mxGeometry relative="1" as="geometry" />
        </mxCell>
        <mxCell id="sAPqX24pcC3J2kppDREi-82" value="Add order into sum(total price)" style="rounded=0;whiteSpace=wrap;html=1;fillColor=#d5e8d4;strokeColor=#82b366;" parent="1" vertex="1">
          <mxGeometry x="1150" y="615.28" width="120" height="60" as="geometry" />
        </mxCell>
        <mxCell id="sAPqX24pcC3J2kppDREi-109" style="edgeStyle=orthogonalEdgeStyle;rounded=0;orthogonalLoop=1;jettySize=auto;html=1;" parent="1" source="sAPqX24pcC3J2kppDREi-83" edge="1">
          <mxGeometry relative="1" as="geometry">
            <mxPoint x="1998" y="342.14" as="targetPoint" />
          </mxGeometry>
        </mxCell>
        <mxCell id="sAPqX24pcC3J2kppDREi-83" value="Print total price(sum)" style="shape=parallelogram;perimeter=parallelogramPerimeter;whiteSpace=wrap;html=1;fixedSize=1;fillColor=#dae8fc;strokeColor=#6c8ebf;" parent="1" vertex="1">
          <mxGeometry x="1927.99" y="242.14" width="140" height="60" as="geometry" />
        </mxCell>
        <mxCell id="sAPqX24pcC3J2kppDREi-110" value="END" style="rounded=1;whiteSpace=wrap;html=1;fillColor=#fff2cc;strokeColor=#d6b656;" parent="1" vertex="1">
          <mxGeometry x="1943" y="342.28" width="120" height="27.72" as="geometry" />
        </mxCell>
        <mxCell id="_w8bl6HFfjUdUU0fpf9U-22" style="edgeStyle=orthogonalEdgeStyle;rounded=0;orthogonalLoop=1;jettySize=auto;html=1;" edge="1" parent="1" source="sAPqX24pcC3J2kppDREi-124" target="sAPqX24pcC3J2kppDREi-125">
          <mxGeometry relative="1" as="geometry" />
        </mxCell>
        <mxCell id="sAPqX24pcC3J2kppDREi-124" value="User input: Would you like another order?" style="shape=parallelogram;perimeter=parallelogramPerimeter;whiteSpace=wrap;html=1;fixedSize=1;fillColor=#dae8fc;strokeColor=#6c8ebf;" parent="1" vertex="1">
          <mxGeometry x="1140" y="709.56" width="140" height="60" as="geometry" />
        </mxCell>
        <mxCell id="i_FzINYeL-t58OxELR1C-69" style="edgeStyle=orthogonalEdgeStyle;rounded=0;orthogonalLoop=1;jettySize=auto;html=1;" parent="1" source="sAPqX24pcC3J2kppDREi-125" target="sAPqX24pcC3J2kppDREi-126" edge="1">
          <mxGeometry relative="1" as="geometry" />
        </mxCell>
        <mxCell id="i_FzINYeL-t58OxELR1C-70" value="False" style="edgeLabel;html=1;align=center;verticalAlign=middle;resizable=0;points=[];" parent="i_FzINYeL-t58OxELR1C-69" vertex="1" connectable="0">
          <mxGeometry x="-0.204" y="-1" relative="1" as="geometry">
            <mxPoint x="3" as="offset" />
          </mxGeometry>
        </mxCell>
        <mxCell id="_w8bl6HFfjUdUU0fpf9U-30" style="edgeStyle=orthogonalEdgeStyle;rounded=0;orthogonalLoop=1;jettySize=auto;html=1;entryX=0.979;entryY=0.442;entryDx=0;entryDy=0;entryPerimeter=0;exitX=0.5;exitY=1;exitDx=0;exitDy=0;" edge="1" parent="1" source="sAPqX24pcC3J2kppDREi-125" target="sAPqX24pcC3J2kppDREi-67">
          <mxGeometry relative="1" as="geometry">
            <Array as="points">
              <mxPoint x="1375" y="860" />
              <mxPoint x="1820" y="860" />
              <mxPoint x="1820" y="427" />
            </Array>
          </mxGeometry>
        </mxCell>
        <mxCell id="_w8bl6HFfjUdUU0fpf9U-34" value="True" style="edgeLabel;html=1;align=center;verticalAlign=middle;resizable=0;points=[];" vertex="1" connectable="0" parent="_w8bl6HFfjUdUU0fpf9U-30">
          <mxGeometry x="-0.9589" y="-3" relative="1" as="geometry">
            <mxPoint as="offset" />
          </mxGeometry>
        </mxCell>
        <mxCell id="sAPqX24pcC3J2kppDREi-125" value="If Yes" style="rhombus;whiteSpace=wrap;html=1;fillColor=#f8cecc;strokeColor=#b85450;" parent="1" vertex="1">
          <mxGeometry x="1320" y="694.56" width="110" height="90" as="geometry" />
        </mxCell>
        <mxCell id="L-jvm7y-m4SU_3kIY5i--10" value="True" style="edgeStyle=orthogonalEdgeStyle;rounded=0;orthogonalLoop=1;jettySize=auto;html=1;entryX=0.5;entryY=0;entryDx=0;entryDy=0;" parent="1" source="sAPqX24pcC3J2kppDREi-126" target="L-jvm7y-m4SU_3kIY5i--8" edge="1">
          <mxGeometry relative="1" as="geometry" />
        </mxCell>
        <mxCell id="_w8bl6HFfjUdUU0fpf9U-36" style="edgeStyle=orthogonalEdgeStyle;rounded=0;orthogonalLoop=1;jettySize=auto;html=1;entryX=0.602;entryY=0.007;entryDx=0;entryDy=0;entryPerimeter=0;exitX=1;exitY=0.5;exitDx=0;exitDy=0;" edge="1" parent="1" source="sAPqX24pcC3J2kppDREi-126" target="sAPqX24pcC3J2kppDREi-124">
          <mxGeometry relative="1" as="geometry">
            <mxPoint x="1640" y="740" as="targetPoint" />
            <Array as="points">
              <mxPoint x="1635" y="740" />
              <mxPoint x="1635" y="690" />
              <mxPoint x="1224" y="690" />
            </Array>
          </mxGeometry>
        </mxCell>
        <mxCell id="_w8bl6HFfjUdUU0fpf9U-37" value="False" style="edgeLabel;html=1;align=center;verticalAlign=middle;resizable=0;points=[];" vertex="1" connectable="0" parent="_w8bl6HFfjUdUU0fpf9U-36">
          <mxGeometry x="-0.8484" relative="1" as="geometry">
            <mxPoint as="offset" />
          </mxGeometry>
        </mxCell>
        <mxCell id="sAPqX24pcC3J2kppDREi-126" value="If no" style="rhombus;whiteSpace=wrap;html=1;fillColor=#f8cecc;strokeColor=#b85450;" parent="1" vertex="1">
          <mxGeometry x="1505" y="694.56" width="110" height="90" as="geometry" />
        </mxCell>
        <mxCell id="L-jvm7y-m4SU_3kIY5i--16" style="edgeStyle=orthogonalEdgeStyle;rounded=0;orthogonalLoop=1;jettySize=auto;html=1;entryX=0.5;entryY=0;entryDx=0;entryDy=0;" parent="1" source="i_FzINYeL-t58OxELR1C-18" target="L-jvm7y-m4SU_3kIY5i--12" edge="1">
          <mxGeometry relative="1" as="geometry" />
        </mxCell>
        <mxCell id="i_FzINYeL-t58OxELR1C-18" value="Print dictionary for&amp;nbsp;&lt;br&gt;drinks" style="shape=parallelogram;perimeter=parallelogramPerimeter;whiteSpace=wrap;html=1;fixedSize=1;fillColor=#1ba1e2;strokeColor=#006EAF;fontColor=#ffffff;" parent="1" vertex="1">
          <mxGeometry x="1268" y="222.14" width="140" height="60" as="geometry" />
        </mxCell>
        <mxCell id="L-jvm7y-m4SU_3kIY5i--21" style="edgeStyle=orthogonalEdgeStyle;rounded=0;orthogonalLoop=1;jettySize=auto;html=1;entryX=0.5;entryY=0;entryDx=0;entryDy=0;" parent="1" source="i_FzINYeL-t58OxELR1C-20" target="L-jvm7y-m4SU_3kIY5i--13" edge="1">
          <mxGeometry relative="1" as="geometry" />
        </mxCell>
        <mxCell id="i_FzINYeL-t58OxELR1C-20" value="Print dictionary for&amp;nbsp;&lt;br&gt;lunch" style="shape=parallelogram;perimeter=parallelogramPerimeter;whiteSpace=wrap;html=1;fixedSize=1;fillColor=#1ba1e2;strokeColor=#006EAF;fontColor=#ffffff;" parent="1" vertex="1">
          <mxGeometry x="1418" y="222.14" width="140" height="60" as="geometry" />
        </mxCell>
        <mxCell id="L-jvm7y-m4SU_3kIY5i--23" style="edgeStyle=orthogonalEdgeStyle;rounded=0;orthogonalLoop=1;jettySize=auto;html=1;entryX=0.5;entryY=0;entryDx=0;entryDy=0;" parent="1" source="i_FzINYeL-t58OxELR1C-21" target="L-jvm7y-m4SU_3kIY5i--14" edge="1">
          <mxGeometry relative="1" as="geometry" />
        </mxCell>
        <mxCell id="i_FzINYeL-t58OxELR1C-21" value="Print dictionary for&amp;nbsp;&lt;br&gt;snacks" style="shape=parallelogram;perimeter=parallelogramPerimeter;whiteSpace=wrap;html=1;fixedSize=1;fillColor=#1ba1e2;strokeColor=#006EAF;fontColor=#ffffff;" parent="1" vertex="1">
          <mxGeometry x="1568" y="222.14" width="140" height="60" as="geometry" />
        </mxCell>
        <mxCell id="L-jvm7y-m4SU_3kIY5i--24" style="edgeStyle=orthogonalEdgeStyle;rounded=0;orthogonalLoop=1;jettySize=auto;html=1;" parent="1" source="i_FzINYeL-t58OxELR1C-22" target="L-jvm7y-m4SU_3kIY5i--15" edge="1">
          <mxGeometry relative="1" as="geometry" />
        </mxCell>
        <mxCell id="i_FzINYeL-t58OxELR1C-22" value="Print dictionary for&amp;nbsp;&lt;br&gt;frozen" style="shape=parallelogram;perimeter=parallelogramPerimeter;whiteSpace=wrap;html=1;fixedSize=1;fillColor=#1ba1e2;strokeColor=#006EAF;fontColor=#ffffff;" parent="1" vertex="1">
          <mxGeometry x="1728" y="222.14" width="140" height="60" as="geometry" />
        </mxCell>
        <mxCell id="i_FzINYeL-t58OxELR1C-55" style="edgeStyle=orthogonalEdgeStyle;rounded=0;orthogonalLoop=1;jettySize=auto;html=1;" parent="1" source="i_FzINYeL-t58OxELR1C-50" target="i_FzINYeL-t58OxELR1C-51" edge="1">
          <mxGeometry relative="1" as="geometry" />
        </mxCell>
        <mxCell id="i_FzINYeL-t58OxELR1C-57" value="False" style="edgeLabel;html=1;align=center;verticalAlign=middle;resizable=0;points=[];" parent="i_FzINYeL-t58OxELR1C-55" vertex="1" connectable="0">
          <mxGeometry x="0.1088" y="-1" relative="1" as="geometry">
            <mxPoint as="offset" />
          </mxGeometry>
        </mxCell>
        <mxCell id="_w8bl6HFfjUdUU0fpf9U-16" value="True" style="edgeStyle=orthogonalEdgeStyle;rounded=0;orthogonalLoop=1;jettySize=auto;html=1;entryX=0.5;entryY=0;entryDx=0;entryDy=0;" edge="1" parent="1" source="i_FzINYeL-t58OxELR1C-50" target="_w8bl6HFfjUdUU0fpf9U-12">
          <mxGeometry relative="1" as="geometry" />
        </mxCell>
        <mxCell id="i_FzINYeL-t58OxELR1C-50" value="&lt;br&gt;If user input is in dictionary&lt;br&gt;(LUNCH)" style="rhombus;whiteSpace=wrap;html=1;fillColor=#f8cecc;strokeColor=#b85450;" parent="1" vertex="1">
          <mxGeometry x="1325" y="480.28" width="125" height="90" as="geometry" />
        </mxCell>
        <mxCell id="i_FzINYeL-t58OxELR1C-56" value="False" style="edgeStyle=orthogonalEdgeStyle;rounded=0;orthogonalLoop=1;jettySize=auto;html=1;" parent="1" source="i_FzINYeL-t58OxELR1C-51" target="i_FzINYeL-t58OxELR1C-52" edge="1">
          <mxGeometry relative="1" as="geometry" />
        </mxCell>
        <mxCell id="_w8bl6HFfjUdUU0fpf9U-17" value="True" style="edgeStyle=orthogonalEdgeStyle;rounded=0;orthogonalLoop=1;jettySize=auto;html=1;entryX=0.5;entryY=0;entryDx=0;entryDy=0;" edge="1" parent="1" source="i_FzINYeL-t58OxELR1C-51" target="_w8bl6HFfjUdUU0fpf9U-13">
          <mxGeometry relative="1" as="geometry" />
        </mxCell>
        <mxCell id="i_FzINYeL-t58OxELR1C-51" value="&lt;br&gt;If user input is in dictionary&lt;br&gt;(SNACKS)" style="rhombus;whiteSpace=wrap;html=1;fillColor=#f8cecc;strokeColor=#b85450;" parent="1" vertex="1">
          <mxGeometry x="1505" y="480.28" width="120" height="90" as="geometry" />
        </mxCell>
        <mxCell id="_w8bl6HFfjUdUU0fpf9U-18" value="True" style="edgeStyle=orthogonalEdgeStyle;rounded=0;orthogonalLoop=1;jettySize=auto;html=1;" edge="1" parent="1" source="i_FzINYeL-t58OxELR1C-52" target="_w8bl6HFfjUdUU0fpf9U-15">
          <mxGeometry relative="1" as="geometry" />
        </mxCell>
        <mxCell id="i_FzINYeL-t58OxELR1C-52" value="&lt;br&gt;If user input is in dictionary&lt;br&gt;(FROZEN)" style="rhombus;whiteSpace=wrap;html=1;fillColor=#f8cecc;strokeColor=#b85450;" parent="1" vertex="1">
          <mxGeometry x="1680" y="480.28" width="130" height="90" as="geometry" />
        </mxCell>
        <mxCell id="4_mMgGhHoww_KSIwSyRq-2" style="edgeStyle=orthogonalEdgeStyle;rounded=0;orthogonalLoop=1;jettySize=auto;html=1;entryX=0.457;entryY=1.048;entryDx=0;entryDy=0;entryPerimeter=0;" parent="1" source="4Q9XA_miV3cwY5ju5Qzq-3" target="sAPqX24pcC3J2kppDREi-14" edge="1">
          <mxGeometry relative="1" as="geometry" />
        </mxCell>
        <mxCell id="4Q9XA_miV3cwY5ju5Qzq-3" value="&lt;br&gt;Print: You account has been added" style="shape=parallelogram;perimeter=parallelogramPerimeter;whiteSpace=wrap;html=1;fixedSize=1;fillColor=#1ba1e2;strokeColor=#006EAF;fontColor=#ffffff;" parent="1" vertex="1">
          <mxGeometry x="717" y="525.14" width="140" height="60" as="geometry" />
        </mxCell>
        <mxCell id="L-jvm7y-m4SU_3kIY5i--6" style="edgeStyle=orthogonalEdgeStyle;rounded=0;orthogonalLoop=1;jettySize=auto;html=1;" parent="1" source="L-jvm7y-m4SU_3kIY5i--1" target="L-jvm7y-m4SU_3kIY5i--4" edge="1">
          <mxGeometry relative="1" as="geometry" />
        </mxCell>
        <mxCell id="L-jvm7y-m4SU_3kIY5i--1" value="Run&amp;nbsp; Menu&lt;br&gt;Function" style="rounded=0;whiteSpace=wrap;html=1;fillColor=#d5e8d4;strokeColor=#82b366;" parent="1" vertex="1">
          <mxGeometry x="888.75" y="580" width="120" height="60" as="geometry" />
        </mxCell>
        <mxCell id="L-jvm7y-m4SU_3kIY5i--3" style="edgeStyle=orthogonalEdgeStyle;rounded=0;orthogonalLoop=1;jettySize=auto;html=1;" parent="1" source="L-jvm7y-m4SU_3kIY5i--2" target="sAPqX24pcC3J2kppDREi-47" edge="1">
          <mxGeometry relative="1" as="geometry" />
        </mxCell>
        <mxCell id="L-jvm7y-m4SU_3kIY5i--2" value="Start&lt;br&gt;(Menu function)" style="rounded=1;whiteSpace=wrap;html=1;fillColor=#fff2cc;strokeColor=#d6b656;" parent="1" vertex="1">
          <mxGeometry x="1050" y="146.14" width="120" height="40" as="geometry" />
        </mxCell>
        <mxCell id="L-jvm7y-m4SU_3kIY5i--4" value="END" style="rounded=1;whiteSpace=wrap;html=1;fillColor=#fff2cc;strokeColor=#d6b656;" parent="1" vertex="1">
          <mxGeometry x="888.75" y="660" width="120" height="27.72" as="geometry" />
        </mxCell>
        <mxCell id="4_mMgGhHoww_KSIwSyRq-1" style="edgeStyle=orthogonalEdgeStyle;rounded=0;orthogonalLoop=1;jettySize=auto;html=1;" parent="1" source="L-jvm7y-m4SU_3kIY5i--7" target="sAPqX24pcC3J2kppDREi-67" edge="1">
          <mxGeometry relative="1" as="geometry" />
        </mxCell>
        <mxCell id="L-jvm7y-m4SU_3kIY5i--7" value="Start&lt;br&gt;(math function)" style="rounded=1;whiteSpace=wrap;html=1;fillColor=#fff2cc;strokeColor=#d6b656;" parent="1" vertex="1">
          <mxGeometry x="1249.99" y="410.07" width="120" height="40.14" as="geometry" />
        </mxCell>
        <mxCell id="L-jvm7y-m4SU_3kIY5i--8" value="END" style="rounded=1;whiteSpace=wrap;html=1;fillColor=#fff2cc;strokeColor=#d6b656;" parent="1" vertex="1">
          <mxGeometry x="1500" y="820" width="120" height="27.72" as="geometry" />
        </mxCell>
        <mxCell id="L-jvm7y-m4SU_3kIY5i--12" value="Run math function" style="rounded=0;whiteSpace=wrap;html=1;fillColor=#d5e8d4;strokeColor=#82b366;" parent="1" vertex="1">
          <mxGeometry x="1278" y="309.99999999999994" width="120" height="60" as="geometry" />
        </mxCell>
        <mxCell id="L-jvm7y-m4SU_3kIY5i--13" value="Run math function" style="rounded=0;whiteSpace=wrap;html=1;fillColor=#d5e8d4;strokeColor=#82b366;" parent="1" vertex="1">
          <mxGeometry x="1428" y="309.99999999999994" width="120" height="60" as="geometry" />
        </mxCell>
        <mxCell id="L-jvm7y-m4SU_3kIY5i--14" value="Run math function" style="rounded=0;whiteSpace=wrap;html=1;fillColor=#d5e8d4;strokeColor=#82b366;" parent="1" vertex="1">
          <mxGeometry x="1578" y="309.99999999999994" width="120" height="60" as="geometry" />
        </mxCell>
        <mxCell id="L-jvm7y-m4SU_3kIY5i--15" value="Run math function" style="rounded=0;whiteSpace=wrap;html=1;fillColor=#d5e8d4;strokeColor=#82b366;" parent="1" vertex="1">
          <mxGeometry x="1738" y="309.99999999999994" width="120" height="60" as="geometry" />
        </mxCell>
        <mxCell id="_w8bl6HFfjUdUU0fpf9U-27" style="edgeStyle=orthogonalEdgeStyle;rounded=0;orthogonalLoop=1;jettySize=auto;html=1;entryX=0.617;entryY=0.018;entryDx=0;entryDy=0;entryPerimeter=0;" edge="1" parent="1" source="_w8bl6HFfjUdUU0fpf9U-12" target="sAPqX24pcC3J2kppDREi-124">
          <mxGeometry relative="1" as="geometry">
            <Array as="points">
              <mxPoint x="1388" y="690" />
              <mxPoint x="1226" y="690" />
            </Array>
          </mxGeometry>
        </mxCell>
        <mxCell id="_w8bl6HFfjUdUU0fpf9U-12" value="Add order into sum(total price)" style="rounded=0;whiteSpace=wrap;html=1;fillColor=#d5e8d4;strokeColor=#82b366;" vertex="1" parent="1">
          <mxGeometry x="1327.5" y="615.28" width="120" height="60" as="geometry" />
        </mxCell>
        <mxCell id="_w8bl6HFfjUdUU0fpf9U-28" style="edgeStyle=orthogonalEdgeStyle;rounded=0;orthogonalLoop=1;jettySize=auto;html=1;entryX=0.612;entryY=0.03;entryDx=0;entryDy=0;entryPerimeter=0;" edge="1" parent="1" source="_w8bl6HFfjUdUU0fpf9U-13" target="sAPqX24pcC3J2kppDREi-124">
          <mxGeometry relative="1" as="geometry">
            <Array as="points">
              <mxPoint x="1565" y="690" />
              <mxPoint x="1226" y="690" />
            </Array>
          </mxGeometry>
        </mxCell>
        <mxCell id="_w8bl6HFfjUdUU0fpf9U-13" value="Add order into sum(total price)" style="rounded=0;whiteSpace=wrap;html=1;fillColor=#d5e8d4;strokeColor=#82b366;" vertex="1" parent="1">
          <mxGeometry x="1505" y="610" width="120" height="60" as="geometry" />
        </mxCell>
        <mxCell id="_w8bl6HFfjUdUU0fpf9U-29" style="edgeStyle=orthogonalEdgeStyle;rounded=0;orthogonalLoop=1;jettySize=auto;html=1;entryX=0.612;entryY=0.018;entryDx=0;entryDy=0;entryPerimeter=0;exitX=0.5;exitY=1;exitDx=0;exitDy=0;" edge="1" parent="1" source="_w8bl6HFfjUdUU0fpf9U-15" target="sAPqX24pcC3J2kppDREi-124">
          <mxGeometry relative="1" as="geometry" />
        </mxCell>
        <mxCell id="_w8bl6HFfjUdUU0fpf9U-15" value="Add order into sum(total price)" style="rounded=0;whiteSpace=wrap;html=1;fillColor=#d5e8d4;strokeColor=#82b366;" vertex="1" parent="1">
          <mxGeometry x="1685" y="610" width="120" height="60" as="geometry" />
        </mxCell>
      </root>
    </mxGraphModel>
  </diagram>
</mxfile>
